<svg width="56" height="19" viewBox="0 0 56 19" fill="none" xmlns="http://www.w3.org/2000/svg">
<path d="M7.73038 0.238636V17.6932H4.56845V3.31534H4.46618L0.383789 5.9233V3.02557L4.72186 0.238636H7.73038Z" fill="#F9F9F9"/>
<path d="M18.6139 18.0256C17.2105 18.0256 16.0059 17.6705 15.0003 16.9602C14.0003 16.2443 13.2304 15.2131 12.6906 13.8665C12.1565 12.5142 11.8895 10.8864 11.8895 8.98295C11.8952 7.07955 12.165 5.46023 12.6991 4.125C13.2389 2.78409 14.0088 1.76136 15.0088 1.05682C16.0145 0.352273 17.2162 0 18.6139 0C20.0116 0 21.2133 0.352273 22.219 1.05682C23.2247 1.76136 23.9946 2.78409 24.5287 4.125C25.0684 5.46591 25.3383 7.08523 25.3383 8.98295C25.3383 10.892 25.0684 12.5227 24.5287 13.875C23.9946 15.2216 23.2247 16.25 22.219 16.9602C21.219 17.6705 20.0173 18.0256 18.6139 18.0256ZM18.6139 15.358C19.7048 15.358 20.5656 14.821 21.1963 13.7472C21.8327 12.6676 22.1508 11.0795 22.1508 8.98295C22.1508 7.59659 22.0059 6.43182 21.7162 5.48864C21.4264 4.54545 21.0173 3.83523 20.4889 3.35796C19.9605 2.875 19.3355 2.63352 18.6139 2.63352C17.5287 2.63352 16.6707 3.1733 16.04 4.25284C15.4094 5.3267 15.0912 6.90341 15.0855 8.98295C15.0798 10.375 15.219 11.5455 15.5031 12.4943C15.7929 13.4432 16.202 14.1591 16.7304 14.642C17.2588 15.1193 17.8866 15.358 18.6139 15.358Z" fill="#F9F9F9"/>
<path d="M34.6217 18.0256C33.2183 18.0256 32.0138 17.6705 31.0081 16.9602C30.0081 16.2443 29.2382 15.2131 28.6984 13.8665C28.1643 12.5142 27.8973 10.8864 27.8973 8.98295C27.903 7.07955 28.1729 5.46023 28.7069 4.125C29.2467 2.78409 30.0166 1.76136 31.0166 1.05682C32.0223 0.352273 33.224 0 34.6217 0C36.0194 0 37.2211 0.352273 38.2268 1.05682C39.2325 1.76136 40.0024 2.78409 40.5365 4.125C41.0763 5.46591 41.3461 7.08523 41.3461 8.98295C41.3461 10.892 41.0763 12.5227 40.5365 13.875C40.0024 15.2216 39.2325 16.25 38.2268 16.9602C37.2268 17.6705 36.0251 18.0256 34.6217 18.0256ZM34.6217 15.358C35.7126 15.358 36.5734 14.821 37.2041 13.7472C37.8405 12.6676 38.1586 11.0795 38.1586 8.98295C38.1586 7.59659 38.0138 6.43182 37.724 5.48864C37.4342 4.54545 37.0251 3.83523 36.4967 3.35796C35.9683 2.875 35.3433 2.63352 34.6217 2.63352C33.5365 2.63352 32.6785 3.1733 32.0479 4.25284C31.4172 5.3267 31.099 6.90341 31.0933 8.98295C31.0876 10.375 31.2268 11.5455 31.5109 12.4943C31.8007 13.4432 32.2098 14.1591 32.7382 14.642C33.2666 15.1193 33.8944 15.358 34.6217 15.358Z" fill="#F9F9F9"/>
<path d="M45.1019 4.93457L48.4769 10.517L51.8519 4.93457H53.6161L49.4059 11.48L53.6161 18.0255H51.8519L48.4769 12.6221L45.1019 18.0255H43.3462L47.5053 11.48L43.3462 4.93457H45.1019Z" fill="#F9F9F9"/>
<path d="M47.1019 4.93457L50.4769 10.517L53.8519 4.93457H55.6161L51.4059 11.48L55.6161 18.0255H53.8519L50.4769 12.6221L47.1019 18.0255H45.3462L49.5053 11.48L45.3462 4.93457H47.1019Z" fill="#F9F9F9"/>
</svg>
