<svg width="15" height="15" viewBox="0 0 15 15" fill="none" xmlns="http://www.w3.org/2000/svg">
<g id="Calendar Icon">
<path d="M5.0542 5C5.0542 5.55225 4.60645 6 4.0542 6C3.50195 6 3.0542 5.55225 3.0542 5C3.0542 4.44775 3.50195 4 4.0542 4C4.60645 4 5.0542 4.44775 5.0542 5Z" fill="#737373"/>
<path d="M4.0542 9.25C4.60645 9.25 5.0542 8.80225 5.0542 8.25C5.0542 7.69775 4.60645 7.25 4.0542 7.25C3.50195 7.25 3.0542 7.69775 3.0542 8.25C3.0542 8.80225 3.50195 9.25 4.0542 9.25Z" fill="#737373"/>
<path d="M5.0542 11.25C5.0542 11.8022 4.60645 12.25 4.0542 12.25C3.50195 12.25 3.0542 11.8022 3.0542 11.25C3.0542 10.6978 3.50195 10.25 4.0542 10.25C4.60645 10.25 5.0542 10.6978 5.0542 11.25Z" fill="#737373"/>
<path d="M7.5542 6C8.10645 6 8.5542 5.55225 8.5542 5C8.5542 4.44775 8.10645 4 7.5542 4C7.00195 4 6.5542 4.44775 6.5542 5C6.5542 5.55225 7.00195 6 7.5542 6Z" fill="#737373"/>
<path d="M8.5542 8.25C8.5542 8.80225 8.10645 9.25 7.5542 9.25C7.00195 9.25 6.5542 8.80225 6.5542 8.25C6.5542 7.69775 7.00195 7.25 7.5542 7.25C8.10645 7.25 8.5542 7.69775 8.5542 8.25Z" fill="#737373"/>
<path d="M7.5542 12.25C8.10645 12.25 8.5542 11.8022 8.5542 11.25C8.5542 10.6978 8.10645 10.25 7.5542 10.25C7.00195 10.25 6.5542 10.6978 6.5542 11.25C6.5542 11.8022 7.00195 12.25 7.5542 12.25Z" fill="#737373"/>
<path d="M12.0542 5C12.0542 5.55225 11.6064 6 11.0542 6C10.502 6 10.0542 5.55225 10.0542 5C10.0542 4.44775 10.502 4 11.0542 4C11.6064 4 12.0542 4.44775 12.0542 5Z" fill="#737373"/>
<path d="M11.0542 9.25C11.6064 9.25 12.0542 8.80225 12.0542 8.25C12.0542 7.69775 11.6064 7.25 11.0542 7.25C10.502 7.25 10.0542 7.69775 10.0542 8.25C10.0542 8.80225 10.502 9.25 11.0542 9.25Z" fill="#737373"/>
<path fill-rule="evenodd" clip-rule="evenodd" d="M2.3042 0.25C1.19971 0.25 0.304199 1.14539 0.304199 2.25V12.75C0.304199 13.8546 1.19971 14.75 2.3042 14.75H12.8042C13.9087 14.75 14.8042 13.8546 14.8042 12.75V2.25C14.8042 1.14539 13.9087 0.25 12.8042 0.25H2.3042ZM12.8042 2.75H2.3042C2.10303 2.75 1.91992 2.82947 1.78516 2.95874C1.64258 3.09521 1.5542 3.28723 1.5542 3.5V12.75C1.5542 13.1642 1.89014 13.5 2.3042 13.5H12.8042C13.2183 13.5 13.5542 13.1642 13.5542 12.75V3.5C13.5542 3.08582 13.2183 2.75 12.8042 2.75Z" fill="#737373"/>
</g>
</svg>
